<svg width="1080" height="341" viewBox="0 0 1080 341" fill="none" xmlns="http://www.w3.org/2000/svg">
<g clip-path="url(#clip0_1_2)">
<path d="M113.55 282.96C95.73 282.96 80.22 279.55 67.02 272.73C53.82 265.91 43.59 256.12 36.33 243.36C29.07 230.6 25.44 215.09 25.44 196.83H60.09C60.09 214.87 64.82 228.84 74.28 238.74C83.74 248.42 96.72 253.26 113.22 253.26C127.3 253.26 138.63 250.07 147.21 243.69C155.79 237.09 160.08 227.96 160.08 216.3C160.08 208.38 157.66 202 152.82 197.16C148.2 192.32 141.93 188.36 134.01 185.28C126.31 182.2 117.84 179.45 108.6 177.03C99.36 174.61 90.01 171.97 80.55 169.11C71.31 166.03 62.73 162.18 54.81 157.56C47.11 152.94 40.84 146.78 36 139.08C31.38 131.38 29.07 121.59 29.07 109.71C29.07 97.17 32.37 86.06 38.97 76.38C45.79 66.48 55.14 58.78 67.02 53.28C79.12 47.56 93.31 44.7 109.59 44.7C125.43 44.7 139.62 47.67 152.16 53.61C164.7 59.33 174.71 67.58 182.19 78.36C189.89 88.92 193.85 101.68 194.07 116.64H159.09C158.87 107.84 156.45 100.36 151.83 94.2C147.43 87.82 141.49 82.98 134.01 79.68C126.75 76.16 118.61 74.4 109.59 74.4C96.61 74.4 86.05 77.48 77.91 83.64C69.77 89.8 65.7 98.16 65.7 108.72C65.7 116.2 68.01 122.14 72.63 126.54C77.47 130.94 83.74 134.57 91.44 137.43C99.36 140.07 107.94 142.6 117.18 145.02C126.64 147.22 135.99 149.86 145.23 152.94C154.47 155.8 162.94 159.76 170.64 164.82C178.56 169.66 184.83 176.26 189.45 184.62C194.29 192.76 196.71 203.21 196.71 215.97C196.71 229.61 193.08 241.49 185.82 251.61C178.56 261.51 168.66 269.21 156.12 274.71C143.58 280.21 129.39 282.96 113.55 282.96ZM335.439 93.54C351.719 93.54 365.909 97.61 378.009 105.75C390.329 113.67 400.009 124.78 407.049 139.08C414.089 153.38 417.609 169.77 417.609 188.25C417.609 206.51 414.089 222.79 407.049 237.09C400.009 251.39 390.329 262.61 378.009 270.75C365.909 278.89 351.719 282.96 335.439 282.96C323.119 282.96 311.789 280.43 301.449 275.37C291.329 270.31 282.969 263.38 276.369 254.58V337.74H243.039V97.5H274.719L275.709 122.25C282.309 113.45 290.779 106.52 301.119 101.46C311.459 96.18 322.899 93.54 335.439 93.54ZM328.179 254.91C339.399 254.91 349.189 252.05 357.549 246.33C365.909 240.61 372.399 232.8 377.019 222.9C381.639 212.78 383.949 201.23 383.949 188.25C383.949 175.05 381.639 163.5 377.019 153.6C372.399 143.48 365.909 135.67 357.549 130.17C349.189 124.45 339.399 121.59 328.179 121.59C316.739 121.59 306.289 124.89 296.829 131.49C287.589 137.87 280.769 146.67 276.369 157.89V217.95C280.769 229.39 287.589 238.41 296.829 245.01C306.289 251.61 316.739 254.91 328.179 254.91ZM523.008 279V36.45H556.338V279H523.008ZM456.018 279V251.94H623.658V279H456.018ZM480.108 63.51V36.45H539.508V63.51H480.108ZM739.287 279V97.5H772.617V279H739.287ZM672.297 279V251.94H834.987V279H672.297ZM696.387 124.56V97.5H755.787V124.56H696.387ZM736.977 66.48V30.51H774.267V66.48H736.977ZM983.616 279C972.396 279 962.826 276.8 954.906 272.4C946.986 267.78 941.046 261.29 937.086 252.93C933.126 244.57 931.146 234.78 931.146 223.56V63.18L964.476 45.03V223.56C964.476 228.84 965.246 233.68 966.786 238.08C968.326 242.48 971.296 245.89 975.696 248.31C980.316 250.73 987.026 251.94 995.826 251.94H1050.28V279H983.616ZM888.246 124.56V97.5H1021.24V124.56H888.246Z" fill="#3E6465"/>
</g>
<defs>
<clipPath id="clip0_1_2">
<rect width="1080" height="341" fill="white"/>
</clipPath>
</defs>
</svg>
